<?xml version="1.0" encoding="utf-8"?>
<!-- Generator: Adobe Illustrator 27.5.0, SVG Export Plug-In . SVG Version: 6.00 Build 0)  -->
<svg version="1.1" xmlns="http://www.w3.org/2000/svg" xmlns:xlink="http://www.w3.org/1999/xlink" x="0px" y="0px"
	 viewBox="0 0 441.8 432.2" style="enable-background:new 0 0 441.8 432.2;" xml:space="preserve">
<style type="text/css">
	.st0{fill:#FFFFFF;}
</style>
	<g id="Vrstva_1">
	<g>
		<g>
			<g>
				<g>
					<path class="st0" d="M323.9,26.7l-4.6,7l-4.8,0.8L323.9,26.7 M341.8,6.6L341.8,6.6L341.8,6.6z M341.8,6.6L300.5,41l21.2-3.6
						L341.8,6.6L341.8,6.6z"/>
				</g>
				<g>
					<path class="st0" d="M343.6,8.3L343.6,8.3L343.6,8.3 M341.8,5c-0.2,0-0.5,0.1-0.7,0.3l-41.3,34.3c-0.5,0.4-0.7,1.2-0.5,2
						c0.2,0.7,0.7,1.1,1.2,1.1c0.1,0,0.1,0,0.2,0l21.2-3.6c0.3-0.1,0.6-0.3,0.8-0.6l20.1-30.8c0.4-0.6,0.4-1.5,0-2.2
						C342.5,5.2,342.1,5,341.8,5L341.8,5z M335.2,14.1L321,35.8l-15,2.5L335.2,14.1L335.2,14.1z"/>
				</g>
			</g>
			<g>
				<g>
					<path class="st0" d="M313.4,42.8l-10.2,15.8l-5.6,8.6l6.1-22.8L313.4,42.8 M321.7,37.4L321.7,37.4L321.7,37.4z M321.7,37.4
						L300.5,41c-4.5,16.6-8.9,33.2-13.4,49.8C298.6,73,310.1,55.2,321.7,37.4L321.7,37.4z"/>
				</g>
				<g>
					<path class="st0" d="M321.7,35.7c-0.1,0-0.1,0-0.2,0l-21.2,3.6c-0.5,0.1-0.9,0.5-1.1,1.1l-13.4,49.8c-0.2,0.8,0,1.6,0.6,2
						c0.2,0.1,0.4,0.2,0.6,0.2c0.4,0,0.8-0.2,1-0.6l34.6-53.4c0.3-0.5,0.4-1.3,0.1-1.9C322.6,36.1,322.1,35.7,321.7,35.7L321.7,35.7
						z M318.6,39.6l-27.9,43.1l10.8-40.2L318.6,39.6L318.6,39.6z"/>
				</g>
			</g>
			<g>
				<g>
					<path class="st0" d="M293.5,51.6l-8.9,33L266,73.5L293.5,51.6 M300.5,41L300.5,41L300.5,41z M300.5,41l-41.6,33l28.2,16.8
						L300.5,41L300.5,41z"/>
				</g>
				<g>
					<path class="st0" d="M302.3,42.7L302.3,42.7L302.3,42.7 M300.5,39.3c-0.2,0-0.5,0.1-0.7,0.3l-41.6,33c-0.4,0.3-0.6,0.9-0.6,1.5
						c0,0.6,0.3,1.1,0.7,1.4l28.2,16.8c0.2,0.1,0.4,0.2,0.6,0.2c0.2,0,0.3,0,0.5-0.1c0.3-0.2,0.6-0.5,0.7-1l13.4-49.8
						c0.2-0.7,0-1.4-0.4-1.8C301.1,39.4,300.8,39.3,300.5,39.3L300.5,39.3z M298.1,44.8l-11.7,43.6l-24.7-14.7L298.1,44.8
						L298.1,44.8z"/>
				</g>
			</g>
			<g>
				<g>
					<path class="st0" d="M244.3,40.6l8.9,28.4l-28.6-4.5L244.3,40.6 M245.9,32.4l-28.8,34.9l41.9,6.6L245.9,32.4L245.9,32.4z"/>
				</g>
				<g>
					<path class="st0" d="M245.9,30.7c-0.3,0-0.7,0.2-0.9,0.5l-28.8,34.9c-0.4,0.4-0.5,1.1-0.3,1.7c0.2,0.6,0.6,1,1.1,1.1l41.9,6.6
						c0.1,0,0.1,0,0.2,0c0.4,0,0.8-0.2,1-0.6c0.3-0.5,0.4-1.1,0.2-1.6l-13.1-41.6c-0.2-0.5-0.5-0.9-0.9-1
						C246.1,30.7,246,30.7,245.9,30.7L245.9,30.7z M256.9,72L220,66.1l25.4-30.8L256.9,72L256.9,72z"/>
				</g>
			</g>
			<g>
				<g>
					<path class="st0" d="M239.2,24.8l2.1,6.7l-10.1,12.3L239.2,24.8 M239.8,13.2l-22.7,54.1l28.8-34.9L239.8,13.2L239.8,13.2z"/>
				</g>
				<g>
					<path class="st0" d="M242.3,14L242.3,14L242.3,14 M239.7,11.6c-0.5,0-0.9,0.3-1.1,0.9l-22.7,54.1c-0.3,0.7-0.1,1.6,0.4,2.1
						c0.2,0.2,0.5,0.3,0.8,0.3c0.3,0,0.7-0.2,0.9-0.5l28.8-34.9c0.4-0.5,0.5-1.2,0.3-1.8L241,12.6C240.8,12,240.3,11.6,239.7,11.6
						C239.8,11.6,239.8,11.6,239.7,11.6L239.7,11.6z M222.1,59l17.5-41.8l4.7,14.8L222.1,59L222.1,59z"/>
				</g>
			</g>
			<g>
				<g>
					<path class="st0" d="M215.6,73.4l36,73.4L131.9,135L215.6,73.4 M217.1,67.3L121.2,138l137.2,13.5L217.1,67.3L217.1,67.3z"/>
				</g>
				<g>
					<path class="st0" d="M217.1,65.7c-0.2,0-0.4,0.1-0.7,0.2l-95.9,70.6c-0.5,0.4-0.7,1.1-0.6,1.8c0.1,0.7,0.6,1.2,1.2,1.3
						l137.2,13.5c0,0,0.1,0,0.1,0c0.5,0,0.9-0.3,1.1-0.8c0.3-0.5,0.3-1.2,0-1.7l-41.3-84.2C217.9,66,217.5,65.7,217.1,65.7
						L217.1,65.7z M255.9,149.6l-130.5-12.9l91.2-67.2L255.9,149.6L255.9,149.6z"/>
				</g>
			</g>
			<g>
				<g>
					<path class="st0" d="M224.1,72.5l30.9,4.9l-0.4,57.2L224.1,72.5 M217.1,67.3l41.3,84.2l0.6-77.6L217.1,67.3L217.1,67.3z"/>
				</g>
				<g>
					<path class="st0" d="M217.1,65.7c-0.4,0-0.9,0.3-1.1,0.8c-0.3,0.5-0.3,1.2,0,1.8l41.3,84.2c0.2,0.5,0.7,0.8,1.1,0.8
						c0.1,0,0.2,0,0.4-0.1c0.6-0.2,0.9-0.8,1-1.6l0.6-77.6c0-0.8-0.5-1.6-1.1-1.7l-41.9-6.6C217.2,65.7,217.1,65.7,217.1,65.7
						L217.1,65.7z M257.1,145.8l-37.5-76.4l38,6L257.1,145.8L257.1,145.8z"/>
				</g>
			</g>
			<g>
				<g>
					<path class="st0" d="M262.9,81l19,11.4l-19.4,41.1L262.9,81 M258.9,74l-0.6,77.6l28.7-60.8L258.9,74L258.9,74z"/>
				</g>
				<g>
					<path class="st0" d="M258.9,72.3c-0.2,0-0.5,0.1-0.7,0.3c-0.4,0.3-0.6,0.8-0.6,1.4l-0.6,77.6c0,0.7,0.4,1.4,1,1.6
						c0.1,0,0.2,0.1,0.4,0.1c0.5,0,0.9-0.3,1.1-0.8l28.7-60.8c0.2-0.4,0.2-0.9,0.1-1.3c-0.1-0.4-0.4-0.8-0.7-1l-28.2-16.8
						C259.3,72.4,259.1,72.3,258.9,72.3L258.9,72.3z M259.7,145.4l0.5-68.9l25,14.9L259.7,145.4L259.7,145.4z"/>
				</g>
			</g>
			<g>
				<g>
					<path class="st0" d="M287.9,98.5L410.4,263l-147-112.7L287.9,98.5 M287.1,90.8l-28.7,60.8l172.4,132.2L287.1,90.8L287.1,90.8z"
					/>
				</g>
				<g>
					<path class="st0" d="M287.1,89.1c0,0-0.1,0-0.1,0c-0.4,0.1-0.8,0.4-1,0.8l-28.7,60.8c-0.4,0.8-0.2,1.8,0.4,2.3l172.4,132.2
						c0.2,0.2,0.4,0.2,0.7,0.2c0.4,0,0.8-0.2,1-0.6c0.4-0.6,0.4-1.6-0.1-2.2L288,89.6C287.8,89.3,287.5,89.1,287.1,89.1L287.1,89.1z
						 M423.2,276l-163-125l27.2-57.5L423.2,276L423.2,276z"/>
				</g>
			</g>
			<g>
				<g>
					<path class="st0" d="M418.9,279.8l7.2,5.4l-3,10.2L418.9,279.8 M412,269.6l10.9,40.6l7.8-26.5L412,269.6L412,269.6z"/>
				</g>
				<g>
					<path class="st0" d="M412,267.9c-0.3,0-0.6,0.1-0.8,0.4c-0.4,0.4-0.6,1.2-0.4,1.8l10.9,40.6c0.2,0.7,0.7,1.1,1.2,1.1
						c0,0,0,0,0,0c0.5,0,1-0.4,1.2-1.1l7.8-26.5c0.2-0.8,0-1.6-0.6-2l-18.7-14.1C412.5,268,412.3,267.9,412,267.9L412,267.9z
						 M423,305.2l-8.5-31.9l14.7,11.1L423,305.2L423,305.2z"/>
				</g>
			</g>
			<g>
				<g>
					<path class="st0" d="M411.5,283l6.9,25.7l-22.7,18.2L411.5,283 M412,269.6l-24.9,69.3l35.8-28.7L412,269.6L412,269.6z"/>
				</g>
				<g>
					<path class="st0" d="M414.6,270.3L414.6,270.3L414.6,270.3 M412,267.9c-0.5,0-1,0.4-1.2,1l-24.9,69.3c-0.2,0.7-0.1,1.5,0.3,1.9
						c0.2,0.3,0.6,0.4,0.9,0.4c0.2,0,0.5-0.1,0.7-0.3l35.8-28.7c0.5-0.4,0.7-1.2,0.5-1.9l-10.9-40.6
						C413.1,268.4,412.6,268,412,267.9C412.1,267.9,412.1,267.9,412,267.9L412,267.9z M390.1,334.5l21.7-60.4l9.5,35.4L390.1,334.5
						L390.1,334.5z"/>
				</g>
			</g>
			<g>
				<g>
					<path class="st0" d="M276,170.1L407.3,271L386,330.2L276,170.1 M258.4,151.5l128.8,187.4l24.9-69.3L258.4,151.5L258.4,151.5z"
					/>
				</g>
				<g>
					<path class="st0" d="M258.4,149.9c-0.4,0-0.7,0.2-1,0.6c-0.4,0.6-0.4,1.5,0,2.2L386.1,340c0.3,0.4,0.6,0.6,1,0.6
						c0.1,0,0.1,0,0.2,0c0.4-0.1,0.8-0.4,1-1l24.9-69.3c0.3-0.8,0.1-1.7-0.5-2.1L259,150.1C258.8,149.9,258.6,149.9,258.4,149.9
						L258.4,149.9z M386.8,335.8L264.9,158.4l145.5,111.8L386.8,335.8L386.8,335.8z"/>
				</g>
			</g>
			<g>
				<g>
					<path class="st0" d="M229.9,215.8L250,247c0.3,0.4,0.6,0.8,1.1,1.1l51.7,36.4l-42.7-25.2c-0.6-0.4-1.3-0.6-2-0.6
						c-0.1,0-0.2,0-0.3,0l-23.1,1.9L229.9,215.8 M224.2,199.5l6.8,65.4l27-2.2l129.1,76.2l-133.8-94.1L224.2,199.5L224.2,199.5z"/>
				</g>
				<g>
					<path class="st0" d="M224.2,197.8c-0.2,0-0.4,0-0.5,0.1c-0.5,0.3-0.9,1-0.8,1.7l6.8,65.4c0.1,0.8,0.6,1.4,1.3,1.4
						c0,0,0.1,0,0.1,0l26.7-2.2l128.8,76c0.2,0.1,0.4,0.2,0.6,0.2c0.5,0,0.9-0.3,1.2-0.9c0.3-0.8,0.1-1.8-0.5-2.2l-133.5-93.9
						l-29-45.1C225,198,224.6,197.8,224.2,197.8L224.2,197.8z M232.2,263.2l-6.1-58.1l26.2,40.8c0.1,0.2,0.2,0.3,0.4,0.4l101.5,71.4
						l-95.6-56.4c-0.2-0.1-0.4-0.2-0.6-0.2c0,0-0.1,0-0.1,0L232.2,263.2L232.2,263.2z"/>
				</g>
			</g>
			<g>
				<g>
					<path class="st0" d="M261.7,163.5l109.5,159.3l-113.8-80L261.7,163.5 M258.4,151.5l-5,93.3l133.8,94.1L258.4,151.5L258.4,151.5
						z"/>
				</g>
				<g>
					<path class="st0" d="M261.1,151.6L261.1,151.6L261.1,151.6 M258.4,149.9c-0.1,0-0.3,0-0.4,0.1c-0.5,0.2-0.9,0.8-0.9,1.5
						l-5,93.3c0,0.6,0.2,1.2,0.7,1.6l133.8,94.1c0.2,0.1,0.4,0.2,0.6,0.2c0.4,0,0.8-0.2,1-0.6c0.4-0.6,0.4-1.5,0-2.1L259.4,150.4
						C259.1,150.1,258.7,149.9,258.4,149.9L258.4,149.9z M381.3,332.8l-126.5-89l4.7-88.2L381.3,332.8L381.3,332.8z"/>
				</g>
			</g>
			<g>
				<g>
					<path class="st0" d="M253.6,165.1l-3.6,67.2l-21-32.6L253.6,165.1 M258.4,151.5l-34.1,48l29.2,45.3L258.4,151.5L258.4,151.5z"
					/>
				</g>
				<g>
					<path class="st0" d="M260.7,152.7L260.7,152.7L260.7,152.7 M258.4,149.9c-0.4,0-0.7,0.2-1,0.5l-34.1,48c-0.4,0.6-0.4,1.5,0,2.2
						l29.2,45.3c0.3,0.4,0.6,0.6,1,0.6c0.1,0,0.3,0,0.4-0.1c0.5-0.2,0.9-0.8,0.9-1.5l5-93.3c0-0.7-0.3-1.4-0.8-1.6
						C258.7,149.9,258.5,149.9,258.4,149.9L258.4,149.9z M256.8,156.2l-4.5,84.3l-26.3-41L256.8,156.2L256.8,156.2z"/>
				</g>
			</g>
			<g>
				<g>
					<path class="st0" d="M138.6,143.7l112.5,11.1l-28,39.3L138.6,143.7 M121.2,138l103.1,61.5l34.1-48L121.2,138L121.2,138z"/>
				</g>
				<g>
					<path class="st0" d="M121.1,136.3c-0.6,0-1.1,0.5-1.2,1.2c-0.2,0.8,0.1,1.6,0.7,1.9L223.7,201c0.2,0.1,0.4,0.2,0.6,0.2
						c0.4,0,0.7-0.2,1-0.5l34.1-48c0.3-0.5,0.4-1.1,0.2-1.7c-0.2-0.6-0.6-1-1.1-1l-137.2-13.5C121.2,136.3,121.2,136.3,121.1,136.3
						L121.1,136.3z M223.9,197.5l-95.7-57.1l127.5,12.6L223.9,197.5L223.9,197.5z"/>
				</g>
			</g>
			<g>
				<g>
					<path class="st0" d="M191,371.7l21.6,48.2l-173-40.5L191,371.7 M193.5,367.6L11,376.8l208.5,48.8L193.5,367.6L193.5,367.6z"/>
				</g>
				<g>
					<path class="st0" d="M193.6,365.9C193.5,365.9,193.5,365.9,193.6,365.9L11,375.1c-0.7,0-1.2,0.7-1.3,1.5c0,0.8,0.4,1.6,1.1,1.7
						l208.5,48.8c0.1,0,0.2,0,0.2,0c0.4,0,0.8-0.3,1.1-0.7c0.3-0.5,0.3-1.2,0.1-1.8l-26-58.1C194.4,366.2,194,365.9,193.6,365.9
						L193.6,365.9z M217,423.3L22.8,377.8l170-8.6L217,423.3L217,423.3z"/>
				</g>
			</g>
			<g>
				<g>
					<path class="st0" d="M24.7,336.9l137.2,28.2l-145.8,7.4L24.7,336.9 M21.7,332.2L11,376.8l182.5-9.2L21.7,332.2L21.7,332.2z"/>
				</g>
				<g>
					<path class="st0" d="M21.7,330.6c-0.6,0-1.1,0.5-1.2,1.2L9.8,376.3c-0.1,0.5,0,1.1,0.2,1.5c0.2,0.4,0.6,0.6,1,0.6
						c0,0,0,0,0.1,0l182.5-9.2c0.7,0,1.2-0.7,1.3-1.6c0-0.8-0.4-1.6-1.1-1.7L21.9,330.6C21.9,330.6,21.8,330.6,21.7,330.6
						L21.7,330.6z M12.8,375l9.8-40.9l157.9,32.5L12.8,375L12.8,375z"/>
				</g>
			</g>
			<g>
				<g>
					<path class="st0" d="M90,207.6l95.2,154.2L27.7,329.4L90,207.6 M89.7,199.5l-68,132.8l171.8,35.3L89.7,199.5L89.7,199.5z"/>
				</g>
				<g>
					<path class="st0" d="M89.7,197.8C89.7,197.8,89.7,197.8,89.7,197.8c-0.5,0-0.9,0.3-1.1,0.8l-68,132.8c-0.2,0.5-0.3,1.1-0.1,1.6
						c0.2,0.5,0.5,0.9,1,1l171.8,35.3c0.1,0,0.1,0,0.2,0c0.5,0,0.9-0.3,1.1-0.8c0.3-0.6,0.2-1.3-0.1-1.9L90.7,198.5
						C90.5,198.1,90.1,197.8,89.7,197.8L89.7,197.8z M190.4,365.3L23.9,331l65.9-128.7L190.4,365.3L190.4,365.3z"/>
				</g>
			</g>
			<g>
				<g>
					<path class="st0" d="M120.3,148.5l59.8,189.7L94.3,199.3L120.3,148.5 M121.2,138l-31.4,61.5l103.8,168.1L121.2,138L121.2,138z"
					/>
				</g>
				<g>
					<path class="st0" d="M121.1,136.3c-0.4,0-0.8,0.3-1.1,0.8l-31.4,61.5c-0.3,0.6-0.3,1.4,0.1,1.9l103.8,168.1
						c0.3,0.4,0.6,0.6,1,0.6c0.2,0,0.4-0.1,0.7-0.2c0.6-0.4,0.8-1.3,0.6-2l-72.4-229.6c-0.2-0.6-0.6-1-1.1-1
						C121.2,136.3,121.2,136.3,121.1,136.3L121.1,136.3z M188.9,357.4l-97.6-158l29.6-57.8L188.9,357.4L188.9,357.4z"/>
				</g>
			</g>
			<g>
				<g>
					<path class="st0" d="M154.3,230.5l71.8,36.3l-32.3,88.3L154.3,230.5 M147.6,222.7l45.9,144.9L231,264.9L147.6,222.7
						L147.6,222.7z"/>
				</g>
				<g>
					<path class="st0" d="M147.6,221c-0.3,0-0.7,0.2-0.9,0.5c-0.4,0.5-0.5,1.2-0.3,1.8l45.9,144.9c0.2,0.6,0.7,1,1.2,1c0,0,0,0,0,0
						c0.5,0,1-0.4,1.2-1l37.5-102.7c0.2-0.4,0.2-0.9,0-1.3c-0.1-0.4-0.4-0.8-0.7-0.9l-83.4-42.2C147.9,221.1,147.8,221,147.6,221
						L147.6,221z M193.6,363.4l-43.7-137.7l79.3,40.2L193.6,363.4L193.6,363.4z"/>
				</g>
			</g>
			<g>
				<g>
					<path class="st0" d="M128.1,146.8l92.4,55.1l5.9,56.1l-75.4-38.2L128.1,146.8 M121.2,138l26.4,84.7l83.4,42.2l-6.8-65.4
						L121.2,138L121.2,138z"/>
				</g>
				<g>
					<path class="st0" d="M121.2,136.3c-0.3,0-0.6,0.2-0.9,0.4c-0.4,0.5-0.5,1.2-0.3,1.8l26.4,84.7c0.1,0.4,0.4,0.8,0.7,0.9
						l83.4,42.2c0.2,0.1,0.3,0.1,0.5,0.1c0.3,0,0.6-0.1,0.8-0.3c0.4-0.4,0.6-0.9,0.5-1.5l-6.8-65.4c-0.1-0.6-0.3-1-0.7-1.3
						l-103.1-61.5C121.5,136.4,121.3,136.3,121.2,136.3L121.2,136.3z M229.4,262.3l-80.8-40.9l-25-80.1l99.4,59.3L229.4,262.3
						L229.4,262.3z"/>
				</g>
			</g>
		</g>
	</g>
</g>
	<g id="Vrstva_2">
	<rect x="608.1" y="616.8" style="fill:none;" width="10.4" height="0"/>
</g>
</svg>
